<?xml version="1.0" encoding="utf-8"?>
<!-- Generator: Adobe Illustrator 16.0.0, SVG Export Plug-In . SVG Version: 6.00 Build 0)  -->
<!DOCTYPE svg PUBLIC "-//W3C//DTD SVG 1.1//EN" "http://www.w3.org/Graphics/SVG/1.1/DTD/svg11.dtd">
<svg version="1.1" id="Capa_1" xmlns="http://www.w3.org/2000/svg" xmlns:xlink="http://www.w3.org/1999/xlink" x="0px" y="0px"
	 width="100px" height="100px" viewBox="0 0 100 100" enable-background="new 0 0 100 100" xml:space="preserve">
<g>
	<g>
		<path fill="#983B53" d="M81.651,70.576h-11.78c-2.435-0.001-4.828,0.629-6.945,1.829c-1.804,1.022-3.363,2.425-4.572,4.108
			c-0.805-0.141-1.62-0.211-2.438-0.21h-11.79c-0.817-0.001-1.633,0.069-2.438,0.21c-1.208-1.684-2.768-3.086-4.571-4.108
			c-2.118-1.2-4.511-1.83-6.946-1.829h-11.78c-7.828,0.018-14.169,6.359-14.187,14.187v7.997c0.006,0.838,0.686,1.514,1.524,1.514
			h24.169v4.203c0,0.842,0.682,1.523,1.524,1.523h37.157c0.842,0,1.524-0.682,1.524-1.523v-4.203h24.169
			c0.842,0,1.523-0.683,1.523-1.524v-7.986C95.777,76.951,89.463,70.617,81.651,70.576z M30.055,89.124v0.325
			c0,0.147,0,0.284,0,0.432v0.609v0.735H7.252v-6.463c0.018-6.145,4.994-11.121,11.139-11.139h11.78
			c1.907-0.002,3.783,0.49,5.443,1.429c1.113,0.63,2.111,1.443,2.953,2.406C33.825,79.518,30.569,83.98,30.055,89.124z
			 M67.023,90.49v6.473H32.987v-6.588c0-0.119,0-0.235,0-0.348c0-0.182,0-0.364,0-0.547v-0.272c0-0.104,0-0.21,0-0.315v-0.336
			v-0.105v-0.115v-0.231l0.063-0.252l0.105-0.378l0.073-0.253c1.51-4.575,5.775-7.673,10.593-7.692l0.305-0.168h11.79
			c5.596,0.021,10.313,4.174,11.045,9.721c0,0.23,0,0.462,0.062,0.693C67.023,90.014,67.023,90.252,67.023,90.49z M92.79,91.236
			H70.092v-0.914c0-0.116,0-0.231,0-0.348c0-0.119,0-0.238,0-0.357c0-0.168,0-0.346,0-0.514v-0.158v-0.179v-0.325v-0.053v-0.127
			v-0.115v-0.073v-0.137v-0.147v-0.073v-0.095v-0.095v-0.095v-0.23v-0.105v-0.137v-0.137l-0.073-0.262v-0.105V86.36v-0.073v-0.105
			v-0.137l-0.147-0.41c-1.369-3.64-4.162-6.564-7.734-8.102c0.633-0.936,1.401-1.771,2.281-2.48c1.66-0.938,3.535-1.431,5.443-1.429
			h11.79c6.144,0.018,11.121,4.994,11.139,11.139V91.236z"/>
	</g>
</g>
<g>
	<g>
		<circle fill="#983B53" cx="50.084" cy="20.452" r="1.723"/>
	</g>
</g>
<g>
	<g>
		<path fill="#983B53" d="M31.863,49.697c-2.008-2.02-4.739-3.155-7.587-3.153c-5.925-0.005-10.733,4.794-10.738,10.72
			s4.794,10.733,10.72,10.738c5.925,0.006,10.733-4.794,10.738-10.719C34.998,54.438,33.871,51.711,31.863,49.697z M29.708,62.695
			c-3,3-7.863,3.002-10.864,0.002c-3-2.999-3.001-7.863-0.002-10.863c3-3,7.863-3.001,10.863-0.002
			c1.441,1.439,2.25,3.394,2.251,5.431C31.96,59.301,31.151,61.256,29.708,62.695z"/>
	</g>
</g>
<g>
	<g>
		<circle fill="#983B53" cx="61.223" cy="20.452" r="1.723"/>
	</g>
</g>
<g>
	<g>
		<path fill="#983B53" d="M67.969,5.971c-5.14-3.953-11.463-6.056-17.948-5.969c-6.484-0.087-12.808,2.016-17.948,5.969
			c-4.708,3.762-7.619,8.995-7.619,14.786c0.006,2.94,0.754,5.832,2.175,8.406c1.353,2.432,3.17,4.574,5.349,6.305l-1.208,8.039
			c-0.125,0.826,0.442,1.598,1.269,1.724c0.342,0.052,0.692-0.015,0.991-0.189l8.218-4.792c1.302,0.387,2.629,0.686,3.972,0.893
			c1.592,0.246,3.202,0.369,4.813,0.368c6.484,0.087,12.808-2.016,17.949-5.969c4.696-3.772,7.607-8.995,7.607-14.785
			C75.588,14.966,72.677,9.733,67.969,5.971z M66.078,33.188c-4.609,3.507-10.266,5.358-16.057,5.254
			c-1.453,0.002-2.904-0.107-4.34-0.326c-1.425-0.213-2.831-0.54-4.204-0.977c-0.407-0.128-0.85-0.079-1.219,0.137l-6,3.541
			l0.873-5.779c0.083-0.565-0.156-1.128-0.62-1.461c-2.155-1.56-3.948-3.567-5.254-5.885c-1.168-2.125-1.783-4.51-1.786-6.935
			c0-4.834,2.469-9.227,6.462-12.421c4.609-3.507,10.266-5.358,16.057-5.254c5.791-0.104,11.448,1.748,16.058,5.254
			c3.992,3.152,6.462,7.587,6.462,12.421C72.509,25.59,70.07,29.983,66.078,33.188z"/>
	</g>
</g>
<g>
	<g>
		<path fill="#983B53" d="M75.775,46.534c-5.926-0.005-10.733,4.794-10.738,10.719c-0.003,2.844,1.123,5.573,3.132,7.586
			c2.009,2.021,4.739,3.155,7.587,3.153c5.926,0.005,10.733-4.795,10.738-10.721C86.5,51.346,81.701,46.539,75.775,46.534z
			 M81.199,62.691c-3,3-7.863,3.001-10.863,0.002c-1.441-1.44-2.25-3.395-2.251-5.432c-0.003-2.037,0.806-3.992,2.249-5.432
			c2.999-3.001,7.862-3.002,10.863-0.003C84.197,54.826,84.199,59.69,81.199,62.691z"/>
	</g>
</g>
<g>
	<g>
		<circle fill="#983B53" cx="38.945" cy="20.452" r="1.723"/>
	</g>
</g>
<g>
	<g>
		<path fill="#983B53" d="M57.592,55.387c-2.01-2.004-4.732-3.127-7.571-3.126c-2.848-0.003-5.579,1.133-7.587,3.152
			c-4.179,4.193-4.167,10.979,0.026,15.158c4.193,4.179,10.979,4.167,15.159-0.026C61.797,66.352,61.785,59.565,57.592,55.387z
			 M50.019,70.68c-4.243-0.002-7.681-3.441-7.68-7.684s3.441-7.681,7.684-7.68c2.038,0,3.991,0.811,5.43,2.251
			c1.443,1.439,2.252,3.395,2.25,5.433C57.701,67.242,54.262,70.681,50.019,70.68z"/>
	</g>
</g>
</svg>
