<?xml version="1.0" encoding="utf-8"?>
<!-- Generator: Adobe Illustrator 16.0.0, SVG Export Plug-In . SVG Version: 6.00 Build 0)  -->
<!DOCTYPE svg PUBLIC "-//W3C//DTD SVG 1.1//EN" "http://www.w3.org/Graphics/SVG/1.1/DTD/svg11.dtd">
<svg version="1.1" id="Capa_1" xmlns="http://www.w3.org/2000/svg" xmlns:xlink="http://www.w3.org/1999/xlink" x="0px" y="0px"
	 width="100px" height="100px" viewBox="0 0 100 100" enable-background="new 0 0 100 100" xml:space="preserve">
<g>
	<path id="XMLID_49_" fill="#983B53" d="M61.399,87.387v2.922c0,2.325-1.708,4.26-3.931,4.588l-0.72,2.654
		C56.357,98.992,55.062,100,53.56,100h-7.14c-1.502,0-2.798-1.008-3.189-2.449l-0.7-2.654c-2.243-0.35-3.951-2.263-3.951-4.608
		v-2.922c0-1.563,1.255-2.819,2.819-2.819H58.58C60.145,84.568,61.399,85.823,61.399,87.387z M74.63,48.004
		c0,6.646-2.634,12.676-6.914,17.1c-3.251,3.374-5.35,7.674-6.05,12.263c-0.309,1.976-2.016,3.437-4.032,3.437H42.346
		c-1.996,0-3.724-1.44-4.012-3.416c-0.72-4.588-2.84-8.951-6.091-12.305c-4.197-4.361-6.811-10.287-6.873-16.811
		c-0.144-13.704,10.762-24.794,24.465-24.897C63.519,23.271,74.63,34.342,74.63,48.004z M52.777,33.086
		c0-1.522-1.234-2.778-2.777-2.778c-9.794,0-17.778,7.963-17.778,17.778c0,1.522,1.235,2.778,2.778,2.778
		c1.522,0,2.778-1.234,2.778-2.778c0-6.749,5.494-12.222,12.222-12.222C51.543,35.864,52.777,34.63,52.777,33.086z M50,15.288
		c1.522,0,2.777-1.234,2.777-2.778V2.778C52.777,1.255,51.543,0,50,0s-2.778,1.234-2.778,2.778v9.732
		C47.222,14.054,48.478,15.288,50,15.288z M17.305,47.983c0-1.522-1.235-2.778-2.778-2.778H4.794c-1.523,0-2.778,1.235-2.778,2.778
		c0,1.523,1.234,2.778,2.778,2.778h9.732C16.07,50.762,17.305,49.527,17.305,47.983z M95.205,45.206h-9.732
		c-1.521,0-2.777,1.235-2.777,2.778c0,1.523,1.234,2.778,2.777,2.778h9.732c1.523,0,2.778-1.235,2.778-2.778
		C97.983,46.461,96.749,45.206,95.205,45.206z M22.963,71.111l-6.893,6.893c-1.09,1.091-1.09,2.84,0,3.93
		c0.535,0.535,1.255,0.803,1.955,0.803c0.699,0,1.419-0.268,1.955-0.803l6.893-6.893c1.09-1.09,1.09-2.84,0-3.93
		C25.802,70.021,24.033,70.021,22.963,71.111z M75.082,25.679c0.699,0,1.42-0.268,1.955-0.803l6.893-6.893
		c1.091-1.09,1.091-2.839,0-3.93c-1.09-1.091-2.84-1.091-3.93,0l-6.893,6.893c-1.091,1.091-1.091,2.84,0,3.93
		C73.662,25.412,74.362,25.679,75.082,25.679z M22.963,24.856c0.535,0.535,1.255,0.802,1.955,0.802c0.7,0,1.42-0.267,1.955-0.802
		c1.09-1.09,1.09-2.839,0-3.93l-6.893-6.893c-1.091-1.09-2.839-1.09-3.93,0c-1.09,1.091-1.09,2.84,0,3.93L22.963,24.856z
		 M77.037,71.111c-1.091-1.091-2.84-1.091-3.93,0c-1.091,1.09-1.091,2.84,0,3.93L80,81.934c0.535,0.535,1.256,0.803,1.955,0.803
		s1.42-0.268,1.955-0.803c1.09-1.09,1.09-2.839,0-3.93L77.037,71.111z"/>
</g>
</svg>
