<?xml version="1.0" encoding="utf-8"?>
<!-- Generator: Adobe Illustrator 16.0.0, SVG Export Plug-In . SVG Version: 6.00 Build 0)  -->
<!DOCTYPE svg PUBLIC "-//W3C//DTD SVG 1.1//EN" "http://www.w3.org/Graphics/SVG/1.1/DTD/svg11.dtd">
<svg version="1.1" id="Capa_1" xmlns="http://www.w3.org/2000/svg" xmlns:xlink="http://www.w3.org/1999/xlink" x="0px" y="0px"
	 width="100px" height="100px" viewBox="0 0 100 100" enable-background="new 0 0 100 100" xml:space="preserve">
<g>
	<path fill="#983B53" d="M93.07,90.381h-2.029v-49.98h-0.002c-2.492,0-4.854-0.813-6.818-2.184c-1.322,0.93-2.845,1.618-4.529,1.954
		c-0.773,0.154-1.559,0.23-2.336,0.23c-0.516,0-1.02-0.057-1.521-0.123v37.178c0,2.122-1.72,3.842-3.844,3.842H58.183V70.769
		l4.868,8.124c0.574,0.961,1.593,1.494,2.638,1.494c0.535,0,1.08-0.142,1.575-0.438c1.453-0.873,1.926-2.758,1.054-4.213
		l-9.786-16.334c-0.605-1.014-1.706-1.514-2.808-1.452c-0.073-0.007-11.338-0.009-11.407-0.003
		c-1.117-0.077-2.233,0.429-2.849,1.455l-9.786,16.334c-0.873,1.455-0.399,3.34,1.054,4.213c0.495,0.296,1.04,0.438,1.575,0.438
		c1.044,0,2.062-0.533,2.637-1.494l4.899-8.176v10.581H28.01c-2.123,0-3.844-1.72-3.844-3.842V40.278
		c-0.5,0.065-1.005,0.123-1.521,0.123c-0.773,0-1.559-0.077-2.344-0.232c-1.683-0.336-3.202-1.022-4.523-1.952
		c-1.964,1.371-4.323,2.184-6.817,2.184H8.959v49.98H6.93c-2.657,0-4.81,2.152-4.81,4.81S4.273,100,6.93,100h86.143
		c2.656,0,4.809-2.152,4.809-4.81S95.729,90.381,93.07,90.381z"/>
	<path fill="#983B53" d="M49.999,40.694c-3.531,0-6.398,3.276-6.398,7.32c0,4.04,2.867,7.318,6.398,7.318
		c3.535,0,6.4-3.278,6.4-7.318C56.398,43.97,53.533,40.694,49.999,40.694z"/>
	<path fill="#983B53" d="M7.002,34.984c0.653,0.193,1.312,0.286,1.961,0.286c2.943,0,5.665-1.917,6.55-4.883l0.36-1.203
		c0.323,2.883,2.435,5.358,5.431,5.954c0.45,0.09,0.9,0.132,1.342,0.132c3.197,0,6.054-2.252,6.702-5.505l0.167-0.836
		c0.236,3.256,2.767,5.974,6.126,6.308c0.231,0.022,0.46,0.033,0.688,0.033c3.471,0,6.445-2.632,6.797-6.162l0.051-0.508
		c0.093,3.698,3.104,6.669,6.823,6.669c3.719,0,6.73-2.971,6.823-6.669l0.051,0.508c0.353,3.529,3.327,6.162,6.798,6.162
		c0.227,0,0.456-0.01,0.688-0.033c3.358-0.334,5.891-3.052,6.125-6.308l0.167,0.836c0.648,3.254,3.505,5.505,6.702,5.505
		c0.442,0,0.893-0.042,1.342-0.132c2.996-0.596,5.11-3.071,5.432-5.954l0.359,1.203c0.886,2.966,3.606,4.883,6.55,4.883
		c0.649,0,1.308-0.093,1.962-0.286c3.62-1.083,5.677-4.894,4.596-8.511L91.421,5.81C90.391,2.362,87.221,0,83.622,0H16.378
		C12.78,0,9.609,2.362,8.579,5.81L2.406,26.473C1.325,30.091,3.381,33.902,7.002,34.984z"/>
</g>
</svg>
