<?xml version="1.0" encoding="utf-8"?>
<!-- Generator: Adobe Illustrator 16.0.0, SVG Export Plug-In . SVG Version: 6.00 Build 0)  -->
<!DOCTYPE svg PUBLIC "-//W3C//DTD SVG 1.1//EN" "http://www.w3.org/Graphics/SVG/1.1/DTD/svg11.dtd">
<svg version="1.1" id="Capa_1" xmlns="http://www.w3.org/2000/svg" xmlns:xlink="http://www.w3.org/1999/xlink" x="0px" y="0px"
	 width="511.625px" height="511.625px" viewBox="0 0 511.625 511.625" enable-background="new 0 0 511.625 511.625"
	 xml:space="preserve">
<g>
	<g>
		<path fill="#983B53" d="M301.926,327.605c30.926-13.038,55.34-30.785,73.23-53.248c17.889-22.458,26.834-46.915,26.834-73.372
			c0-26.458-8.945-50.917-26.84-73.376c-17.889-22.459-42.299-40.208-73.229-53.249c-30.93-13.039-64.571-19.556-100.928-19.556
			c-36.354,0-69.995,6.521-100.927,19.556c-30.929,13.04-55.34,30.789-73.229,53.249C8.947,150.072,0,174.527,0,200.986
			c0,22.648,6.767,43.975,20.28,63.96c13.512,19.98,32.071,36.829,55.671,50.531c-1.902,4.572-3.853,8.754-5.852,12.566
			c-2,3.806-4.377,7.467-7.139,10.99c-2.76,3.525-4.899,6.283-6.423,8.275c-1.523,1.998-3.997,4.812-7.425,8.422
			c-3.427,3.617-5.617,5.996-6.567,7.135c0-0.191-0.381,0.24-1.143,1.287c-0.763,1.047-1.191,1.52-1.285,1.432
			c-0.096-0.104-0.477,0.373-1.143,1.42s-1,1.57-1,1.57l-0.715,1.424c-0.282,0.574-0.476,1.137-0.57,1.711
			c-0.096,0.567-0.144,1.19-0.144,1.854s0.094,1.28,0.288,1.854c0.381,2.471,1.475,4.465,3.283,5.996
			c1.807,1.52,3.756,2.278,5.852,2.278h0.857c9.515-1.332,17.701-2.854,24.552-4.569c29.312-7.609,55.771-19.797,79.372-36.545
			c17.129,3.047,33.879,4.568,50.247,4.568C237.353,347.161,270.999,340.645,301.926,327.605z"/>
		<path fill="#983B53" d="M491.354,338.167c13.518-19.89,20.271-41.248,20.271-64.09c0-23.415-7.145-45.317-21.416-65.681
			c-14.277-20.362-33.693-37.305-58.244-50.819c4.373,14.274,6.562,28.739,6.562,43.398c0,25.503-6.367,49.676-19.129,72.52
			c-12.752,22.836-31.025,43.01-54.816,60.523c-22.08,15.988-47.205,28.261-75.377,36.829
			c-28.164,8.562-57.573,12.848-88.218,12.848c-5.708,0-14.084-0.377-25.122-1.137c38.256,25.118,83.177,37.685,134.755,37.685
			c16.371,0,33.119-1.525,50.252-4.57c23.6,16.754,50.059,28.93,79.369,36.549c6.852,1.719,15.037,3.236,24.555,4.568
			c2.283,0.191,4.381-0.477,6.283-2c1.902-1.521,3.141-3.609,3.709-6.271c-0.088-1.143,0-1.77,0.287-1.861
			c0.281-0.09,0.232-0.711-0.145-1.852c-0.375-1.145-0.566-1.715-0.566-1.715l-0.713-1.424c-0.197-0.377-0.52-0.904-0.998-1.568
			c-0.477-0.658-0.855-1.143-1.145-1.426c-0.279-0.285-0.705-0.764-1.279-1.424c-0.568-0.66-0.951-1.092-1.143-1.283
			c-0.951-1.143-3.139-3.521-6.564-7.139c-3.43-3.613-5.898-6.42-7.422-8.418c-1.523-2-3.666-4.758-6.424-8.283
			c-2.758-3.518-5.141-7.182-7.139-10.99c-1.998-3.807-3.949-7.995-5.854-12.561C459.29,374.859,477.842,358.062,491.354,338.167z"
			/>
	</g>
</g>
</svg>
