<?xml version="1.0" encoding="utf-8"?>
<!-- Generator: Adobe Illustrator 16.0.0, SVG Export Plug-In . SVG Version: 6.00 Build 0)  -->
<!DOCTYPE svg PUBLIC "-//W3C//DTD SVG 1.1//EN" "http://www.w3.org/Graphics/SVG/1.1/DTD/svg11.dtd">
<svg version="1.1" id="Layer_1" xmlns="http://www.w3.org/2000/svg" xmlns:xlink="http://www.w3.org/1999/xlink" x="0px" y="0px"
	 width="100px" height="100px" viewBox="0 0 100 100" enable-background="new 0 0 100 100" xml:space="preserve">
<path fill="#983B53" d="M100,20.008c-6.291,0.29-6.153,0.266-6.864,0.326l3.726-10.639c0,0-11.629,4.278-14.576,5.043
	c-7.743-6.958-19.251-7.266-27.479-2.209c-6.738,4.142-10.354,11.255-9.148,19.569c-13.112-1.82-24.161-8.035-32.883-18.514
	l-2.759-3.313l-2.062,3.786C5.35,18.839,4.484,24.309,5.519,29.456c0.424,2.112,1.145,4.126,2.144,6.012l-2.367-0.917l-0.281,3.955
	c-0.284,4.017,1.053,8.706,3.578,12.542c0.711,1.08,1.627,2.268,2.787,3.438l-1.223-0.188l1.492,4.531
	c1.961,5.953,6.036,10.559,11.323,13.119c-5.28,2.24-9.546,3.67-16.557,5.977L0,80.033l5.925,3.239
	c2.259,1.235,10.242,5.36,18.129,6.598c17.533,2.749,37.272,0.511,50.562-11.458c11.192-10.08,14.865-24.42,14.103-39.342
	c-0.115-2.259,0.503-4.415,1.742-6.07C92.941,29.687,99.984,20.03,100,20.008z M85.775,29.49c-2.059,2.748-3.089,6.256-2.904,9.879
	c0.77,15.052-3.326,26.725-12.174,34.693c-10.335,9.309-27.006,12.962-45.736,10.023c-3.392-0.531-6.897-1.723-9.799-2.912
	c5.878-2.022,10.418-3.825,17.749-7.295l10.234-4.844l-11.299-0.724c-5.412-0.347-9.919-2.97-12.689-7.228
	c1.471-0.086,2.889-0.324,4.301-0.717l10.776-3.002l-10.866-2.661c-5.28-1.294-8.29-4.453-9.886-6.876
	c-1.047-1.592-1.731-3.223-2.142-4.727c1.089,0.292,2.36,0.5,4.408,0.704l10.058,0.995l-7.969-6.216
	c-5.742-4.479-8.043-11.207-6.356-17.675c17.92,18.586,38.96,17.189,41.078,17.681c-0.466-4.528-0.479-4.539-0.601-4.97
	c-2.712-9.587,3.232-14.456,5.913-16.104c5.601-3.441,14.489-3.96,20.646,1.71c1.33,1.224,3.129,1.705,4.812,1.287
	c1.511-0.375,2.751-0.773,3.964-1.206l-2.526,7.216l3.226,0.002C87.383,27.341,86.653,28.318,85.775,29.49z"/>
</svg>
