<?xml version="1.0" encoding="utf-8"?>
<!-- Generator: Adobe Illustrator 16.0.0, SVG Export Plug-In . SVG Version: 6.00 Build 0)  -->
<!DOCTYPE svg PUBLIC "-//W3C//DTD SVG 1.1//EN" "http://www.w3.org/Graphics/SVG/1.1/DTD/svg11.dtd">
<svg version="1.1" id="Layer_1" xmlns="http://www.w3.org/2000/svg" xmlns:xlink="http://www.w3.org/1999/xlink" x="0px" y="0px"
	 width="100px" height="100px" viewBox="0 0 100 100" enable-background="new 0 0 100 100" xml:space="preserve">
<path fill="#983B53" d="M14.649,88.086h70.703c8.078,0,14.648-6.571,14.648-14.648V26.562c0-8.077-6.57-14.648-14.648-14.648H14.649
	C6.572,11.914,0,18.485,0,26.562v46.875C0,81.515,6.572,88.086,14.649,88.086z M5.86,26.562c0-4.846,3.943-8.789,8.789-8.789h70.703
	c4.846,0,8.789,3.943,8.789,8.789v46.875c0,4.846-3.943,8.789-8.789,8.789H14.649c-4.846,0-8.789-3.943-8.789-8.789V26.562z"/>
<path fill="#983B53" d="M35.352,30.373v39.824l35.253-20.238L35.352,30.373z M41.211,40.331l17.48,9.711l-17.48,10.035V40.331z"/>
</svg>
